<?xml version="1.0" standalone="no"?>
<!DOCTYPE svg PUBLIC "-//W3C//DTD SVG 20010904//EN"
 "http://www.w3.org/TR/2001/REC-SVG-20010904/DTD/svg10.dtd">
<svg version="1.0" xmlns="http://www.w3.org/2000/svg"
 width="200.000000pt" height="200.000000pt" viewBox="0 0 200.000000 200.000000"
 preserveAspectRatio="xMidYMid meet">
<metadata>
Created by potrace 1.14, written by Peter Selinger 2001-2017
</metadata>
<g transform="translate(0.000000,200.000000) scale(0.100000,-0.100000)"
fill="#000000" stroke="none">
<path d="M610 1676 l-385 -223 0 -453 0 -452 250 -145 c138 -80 268 -155 290
-168 22 -12 84 -48 137 -79 l98 -57 297 172 c164 95 340 196 391 226 l92 54
-2 450 -3 451 -118 69 c-65 38 -137 80 -160 93 -23 12 -144 82 -269 154 -124
73 -228 132 -230 132 -2 -1 -176 -101 -388 -224z m424 22 c16 -24 84 -125 152
-225 l125 -183 -38 0 c-66 -1 -527 -1 -555 -1 -26 1 -21 11 124 226 84 124
155 225 158 225 4 0 19 -19 34 -42z m379 -156 c152 -87 204 -122 195 -129 -7
-6 -51 -32 -97 -58 -69 -39 -86 -44 -96 -33 -20 21 -235 344 -235 353 0 4 6 3
13 -3 6 -6 105 -64 220 -130z m-600 115 c-24 -40 -218 -324 -228 -335 -10 -12
-26 -6 -89 30 -43 23 -86 47 -97 53 -24 12 -24 21 -1 29 9 4 46 24 82 45 205
122 326 191 333 191 4 0 4 -6 0 -13z m-385 -387 c50 -29 92 -55 92 -58 0 -3
-40 -88 -90 -190 -49 -101 -90 -188 -90 -193 0 -5 -3 -9 -7 -9 -5 0 -8 114 -8
254 -1 140 1 253 5 252 3 -2 47 -27 98 -56z m1248 -195 c0 -140 -2 -255 -4
-255 -4 0 -192 384 -192 393 0 3 30 23 68 44 90 51 127 72 127 72 0 1 1 -114
1 -254z m-361 105 c-71 -131 -293 -510 -305 -523 -17 -18 -18 -18 -32 10 -8
15 -76 135 -151 265 -75 130 -137 241 -137 245 0 5 141 8 314 8 173 0 313 -2
311 -5z m-695 -97 c13 -21 33 -56 46 -78 12 -23 70 -123 128 -224 58 -101 106
-185 106 -188 0 -4 -128 2 -250 12 -109 9 -246 18 -262 17 -10 0 -20 3 -23 8
-3 6 37 99 90 207 53 109 106 217 117 241 11 23 22 42 23 42 2 0 13 -17 25
-37z m810 -4 c0 -4 48 -104 106 -224 58 -119 103 -220 99 -223 -7 -8 -11 -8
-140 -17 -60 -4 -126 -8 -145 -10 -128 -10 -250 -16 -250 -12 0 3 68 123 151
267 136 234 153 259 165 243 7 -10 14 -21 14 -24z m-700 -584 c30 -3 91 -7
134 -10 44 -3 81 -7 83 -9 2 -2 2 -53 1 -114 l-3 -111 -213 123 c-117 68 -216
127 -220 131 -6 6 68 3 218 -10z m757 9 c-3 -4 -102 -62 -219 -130 l-213 -123
-3 111 c-1 61 -1 112 0 114 4 4 83 10 228 20 58 3 106 7 108 9 6 5 105 5 99
-1z"/>
</g>
</svg>
