<svg  fill="none" xmlns="http://www.w3.org/2000/svg">
  <path fill-rule="evenodd" clip-rule="evenodd" d="M9.845 3.687A1596.683 1596.683 0 017.67 7.414c-.037.06-.926-.716-3.468-3.028C2.32 2.676.777 1.282.77 1.288c-.006.006.548 3.083 1.23 6.837l1.242 6.826h17.514l1.241-6.826c.683-3.754 1.237-6.83 1.232-6.836a403.01 403.01 0 00-3.428 3.1c-2.58 2.344-3.432 3.088-3.47 3.027-.029-.045-1.008-1.723-2.177-3.729C12.985 1.682 12.016.041 12 .041c-.016 0-.986 1.64-2.155 3.646zM3.27 18.311c0 .736.012.835.136 1.07.09.169.234.318.42.433l.284.176h15.78l.284-.175c.186-.116.33-.265.42-.434.124-.235.136-.334.136-1.07V17.5H3.27v.811z" fill="#000"/>
</svg>
