<svg fill="none" xmlns="http://www.w3.org/2000/svg">
  <path fill-rule="evenodd" clip-rule="evenodd" d="M6.15 3.864L.375 7.21v13.573l5.813 3.36L12 27.507l5.813-3.361 5.812-3.361V7.21l-5.7-3.296C14.79 2.102 12.157.595 12.075.567 11.993.54 9.326 2.023 6.15 3.864zm8.242 2.449L16.65 9.65H7.345l2.286-3.376c1.257-1.857 2.335-3.36 2.394-3.338.06.021 1.126 1.54 2.367 3.377zm-5.34-1.946C7.28 7.034 5.678 9.35 5.61 9.35c-.145 0-2.903-1.57-2.9-1.65.004-.095 6.32-3.738 6.493-3.745.07-.003.003.183-.15.412zm9.033 1.42C19.847 6.799 21.29 7.66 21.291 7.7c.003.078-2.753 1.65-2.892 1.65-.044 0-.846-1.13-1.784-2.512-2-2.95-1.961-2.888-1.832-2.888.055 0 1.54.827 3.302 1.838zM3.637 10.06c.64.366 1.163.7 1.163.74 0 .163-2.834 5.9-2.914 5.9-.047 0-.086-1.724-.086-3.83V9.04l.338.176c.185.098.86.477 1.5.844zm18.53 4.719l-.042 1.996-1.48-2.975c-.813-1.637-1.42-3.03-1.35-3.096.072-.066.737-.464 1.48-.885l1.35-.766.042 1.865c.023 1.025.023 2.763 0 3.86zm-5.517-3.394c0 .143-4.57 8.013-4.653 8.014-.081.001-4.647-7.876-4.647-8.018 0-.044 2.093-.081 4.65-.081 2.557 0 4.65.038 4.65.085zm-8.337 4.847c1.21 2.093 2.167 3.838 2.128 3.877-.11.11-7.8-.44-7.945-.568-.07-.062.494-1.385 1.254-2.94.761-1.554 1.553-3.186 1.759-3.626.206-.44.427-.745.49-.675.063.068 1.104 1.838 2.314 3.932zm13.192 3.309c-.145.128-7.835.679-7.945.569-.051-.052 2.884-5.26 4.413-7.832.048-.081.892 1.494 1.874 3.5.983 2.006 1.729 3.7 1.658 3.763zm-13.34 2.038c1.645.124 3.014.25 3.043.279.029.029.033.8.01 1.713l-.043 1.661-3.182-1.835c-1.75-1.01-3.23-1.883-3.288-1.941-.142-.143.028-.137 3.46.123zm11.13-.123c-.059.058-1.538.931-3.288 1.94l-3.182 1.836-.043-1.66c-.023-.914-.016-1.688.015-1.72.062-.061 4.843-.45 5.94-.482.365-.011.616.028.558.086z" fill="#000"/>
</svg>
