<svg width="22" height="26" fill="none" xmlns="http://www.w3.org/2000/svg">
  <path fill-rule="evenodd" clip-rule="evenodd" d="M9.564 1.2C7.562 2.528 6.087 3.207 4.232 3.656a14.1 14.1 0 01-2.898.417c-.783.037-.857.05-.985.178l-.138.138.024 3.998C.255 11.85.272 12.467.36 13c.511 3.061 1.873 5.69 4.023 7.764.804.775.785.76 3.946 3.061 1.795 1.307 2.56 1.831 2.67 1.831.11 0 .875-.524 2.67-1.83a396.497 396.497 0 002.897-2.122c.586-.446 1.983-1.872 2.448-2.498 1.107-1.493 1.889-3.111 2.323-4.814.4-1.565.401-1.59.427-6.005l.024-3.998-.138-.138c-.128-.128-.202-.141-.985-.178a14.101 14.101 0 01-2.898-.417c-1.855-.449-3.33-1.128-5.333-2.456C11.638.671 11.091.345 11 .345c-.09 0-.638.326-1.436.855z" fill="#000"/>
</svg>
