<svg fill="none" xmlns="http://www.w3.org/2000/svg">
  <path fill-rule="evenodd" clip-rule="evenodd" d="M7.192.237C3.51.979 1.015 3.265.224 6.62-.04 7.743-.078 10.227.15 11.463c.087.471.353 1.314.591 1.873.238.56.479 1.365.535 1.79.093.7.06.838-.359 1.47-.83 1.253-.772 2.663.141 3.431.246.207 1.115.582 1.937.836 1.236.381 1.55.542 1.848.942.454.613.699 1.342.699 2.087 0 1.187 1.443 1.808 4.2 1.808 2.741 0 4.2-.622 4.2-1.793.002-.83.258-1.622.691-2.137.292-.347.717-.557 1.832-.904.799-.248 1.666-.622 1.929-.83.944-.75 1.015-2.169.173-3.44-.414-.625-.452-.774-.363-1.443.054-.41.3-1.248.546-1.863.586-1.463.742-2.344.742-4.192 0-2.478-.656-4.352-2.083-5.95C15.166.635 11.042-.54 7.192.237zm-.317 13.266c.314.16.683.462.819.67.35.534.311 1.55-.09 2.345-.428.85-1.197 1.284-2.676 1.512-.946.146-1.195.136-1.679-.068-1.007-.424-1.323-1.96-.67-3.256.66-1.31 2.873-1.929 4.296-1.203zm8.431-.061c1.265.446 1.786 1.227 1.786 2.676 0 1.787-.922 2.317-3.15 1.81-.913-.208-1.228-.36-1.671-.802-.872-.871-1.125-2.211-.555-2.936.762-.969 2.147-1.257 3.59-.748zm-5.195 4.06c.566.566 1.281 2.514 1.281 3.488 0 .557-.348 1.072-.724 1.072-.31 0-.776-.442-.777-.736 0-.134-.133-.021-.303.258-.241.396-.386.488-.707.45-.657-.077-.893-.67-.677-1.7.28-1.337 1.156-3.072 1.55-3.072.064 0 .225.108.357.24z" fill="#000"/>
</svg>
